<svg width="222" height="32" viewBox="0 0 222 32" fill="none" xmlns="http://www.w3.org/2000/svg">
<g clip-path="url(#clip0)">
<path d="M71.7997 2.23594C71.3077 2.8263 70.0286 2.99029 65.0762 3.13788C59.7466 3.28547 57.8771 3.46586 55.5977 4.05621C52.6951 4.77776 50.9404 5.84368 50.2189 7.33597C49.7105 8.3691 49.7269 9.51701 50.2517 10.2386C50.6125 10.7469 51.58 11.1733 52.3343 11.1733C52.9083 11.1733 54.253 10.6157 54.253 10.3861C54.253 10.3041 54.0726 10.0746 53.843 9.86139C53.6134 9.6482 53.3839 9.23823 53.3347 8.92665C53.0231 7.23758 54.8926 6.05687 58.7135 5.5321C59.599 5.41731 60.3533 5.35172 60.3861 5.38452C60.4353 5.43371 60.3533 5.77809 60.2222 6.13886C58.8283 10.0418 57.5984 20.5862 58.0247 25.0303C58.2051 26.9981 58.4511 27.5885 59.353 28.1952C59.845 28.5396 60.0582 28.5724 61.1897 28.5232C61.8784 28.474 62.4852 28.4084 62.5344 28.3756C62.5672 28.3264 62.4524 27.8181 62.272 27.2441C61.0257 23.2264 61.1733 14.8302 62.6328 6.9424L62.9772 5.10574H65.7322C67.2572 5.10574 68.6183 5.05654 68.7823 4.99094C69.0447 4.89255 69.0611 5.05654 68.9627 7.41797C68.9135 8.81186 68.7003 11.2717 68.5035 12.8952C68.028 16.8637 67.946 24.9975 68.3888 25.965C68.7659 26.8177 69.3563 27.1457 70.5042 27.1621C71.0126 27.1621 71.4881 27.1129 71.5373 27.0637C71.6029 27.0145 71.5209 26.2766 71.3733 25.4238C71.193 24.4891 71.0782 22.964 71.0782 21.5865C71.0618 19.3891 71.0782 19.2579 71.5045 18.438C71.9965 17.536 73.7512 15.683 73.9479 15.8798C73.9971 15.9617 74.1447 16.3717 74.2431 16.8309C74.5383 18.028 75.6042 20.1926 76.6701 21.7997C77.9493 23.702 80.2779 26.0306 81.6062 26.7357C82.9673 27.4409 83.5576 27.3589 84.558 26.3258C85.4763 25.3583 85.4435 25.0959 84.4104 24.6203C81.4586 23.292 78.474 20.291 76.8177 16.9621C76.2602 15.847 75.7846 14.5023 75.9158 14.4039C75.9486 14.3711 77.2769 13.4363 78.8512 12.3212C81.9834 10.1402 82.8689 9.43502 83.6232 8.64787C84.2792 7.94273 84.8039 6.82761 84.6892 6.35204C84.5416 5.77809 83.9676 5.12213 83.2625 4.77776L82.6393 4.44978L82.0653 5.28612C80.5567 7.51636 78.3264 9.76299 75.3254 12.026C74.4235 12.6984 73.128 13.7807 72.4557 14.4203C71.7833 15.0598 71.2093 15.5518 71.1766 15.5354C71.1438 15.5026 71.2421 13.9283 71.4061 12.0424C71.5537 10.173 71.6849 7.72954 71.7013 6.63082L71.7177 4.63017L72.2589 4.53178C73.4724 4.3022 73.8004 3.28547 72.9312 2.46553C72.3573 1.92437 72.0949 1.87517 71.7997 2.23594Z" fill="black"/>
<path d="M39.0841 4.12212C37.4606 4.25331 37.1327 4.31891 35.5584 4.81087C33.1806 5.56522 30.9667 7.25429 30.1304 8.95977C29.8024 9.64852 29.7368 10.0257 29.7368 11.2556C29.7368 12.4855 29.8024 12.8463 30.1304 13.4531C30.8683 14.847 32.3278 16.1753 34.2137 17.1592L35.0992 17.6184L34.0169 18.1923C32.4918 18.9959 31.5735 19.865 30.9831 21.0457C29.5728 23.8335 31.0651 26.5557 34.6729 27.802C38.6906 29.2123 43.5282 28.3268 46.316 25.6866C47.0211 25.0306 47.2015 24.7518 47.2015 24.3419C47.2015 23.6367 46.8244 23.3579 46.3488 23.7023C45.0533 24.6535 43.6922 25.457 42.7411 25.8342C39.2317 27.2281 34.7876 26.3097 33.5905 23.9483C33.1806 23.1448 33.1642 21.8165 33.5741 20.9145C33.9349 20.111 35.0336 19.1435 36.0012 18.7827C36.6899 18.5203 36.8047 18.5203 37.9854 18.7991C38.7398 18.9795 39.8877 19.1107 40.8388 19.1107C42.2983 19.1271 42.4459 19.0943 42.8558 18.7171C43.4626 18.1431 43.3642 17.4544 42.6099 16.9952C42.1179 16.7164 41.7571 16.6672 40.232 16.6672C39.2481 16.6672 38.1166 16.7328 37.7394 16.7984L37.0507 16.946L35.7552 15.6505C34.2629 14.1582 33.6069 12.9939 33.4757 11.5344C33.2462 8.94337 34.886 6.89352 37.9362 5.99159C38.6414 5.7784 39.4777 5.69641 40.888 5.69641C44.053 5.69641 45.8732 6.35236 47.5787 8.09063C48.5954 9.14015 49.071 9.23855 49.2678 8.45141C49.8745 6.04078 44.4301 3.72855 39.0841 4.12212Z" fill="black"/>
<path d="M148.759 4.26941C147.251 4.95816 146.054 6.77843 145.25 9.58262C144.807 11.0749 143.954 16.1914 143.954 17.2737C143.954 17.5361 143.84 17.782 143.659 17.8804C143.2 18.1264 140.872 18.52 139.215 18.6512L137.707 18.766L137.805 19.1923C138.133 20.4714 139.428 20.947 141.872 20.6846C142.675 20.5862 143.381 20.5534 143.43 20.5862C143.577 20.7502 142.675 24.3744 142.167 25.7191L141.642 27.0638L140.708 27.1621C140.199 27.2277 139.494 27.3425 139.166 27.4245C138.625 27.5557 138.543 27.6541 138.543 28.0477C138.543 28.9496 139.674 29.8679 140.806 29.8679C141.577 29.8679 142.725 29.3924 143.266 28.8676L143.79 28.3593L146.939 29.458C152.777 31.475 153.121 31.557 155.434 31.5734C157.254 31.5898 157.565 31.5406 158.254 31.2126C159.615 30.5403 159.845 29.1792 158.795 27.9329L158.385 27.4409L157.434 27.7361C154.646 28.6052 151.318 28.6052 147.021 27.7361C144.742 27.2605 144.299 27.1293 144.381 26.9162C145.086 25.2927 145.594 23.3412 146.152 20.1599C146.25 19.6351 146.382 19.4875 147.185 19.0283C148.136 18.4872 149.661 17.3229 150.317 16.6505C151.055 15.8962 152.334 14.0759 152.793 13.1576C154.63 9.48423 154.401 5.63051 152.252 4.36781C151.367 3.84305 149.809 3.81025 148.759 4.26941ZM151.564 5.92569C152.088 6.56524 152.219 7.28679 152.072 8.74628C151.859 10.9765 151.072 12.7968 149.628 14.4039C148.94 15.1582 147.07 16.5849 146.742 16.5849C146.463 16.5849 147.546 10.1566 148.169 8.17233C148.677 6.53245 149.628 5.43373 150.547 5.43373C151.006 5.43373 151.236 5.54852 151.564 5.92569Z" fill="black"/>
<path d="M96.9722 4.63032C93.6925 5.04029 91.2819 8.82841 91.5114 13.2233C91.659 16.0111 92.8889 17.7493 94.7256 17.7657C95.5127 17.7657 96.1031 17.4706 96.5131 16.8638C97.1198 15.9783 97.0706 15.6175 96.3327 15.3551C95.4799 15.0599 94.5288 14.0924 94.1024 13.0921C93.6925 12.1409 93.6105 10.1239 93.9385 9.10719C94.9224 6.12261 98.1529 5.22068 100.285 7.33612C101.613 8.68083 102.4 11.0914 102.581 14.3876C102.859 20.0288 101.154 24.4236 98.0218 26.0963C97.169 26.5391 96.7427 26.6539 95.7259 26.7195C93.8893 26.8179 92.9709 26.4735 91.7246 25.2108C90.5603 24.0465 89.888 22.7346 89.3304 20.6027C88.986 19.2908 88.9368 18.7825 88.9532 15.9291C88.9696 13.1741 89.0188 12.5509 89.3304 11.4194C89.7076 9.99273 90.5111 8.17246 90.9539 7.6805C91.2163 7.38532 91.2163 7.35252 90.8391 7.05734C89.9864 6.3522 88.7072 6.86056 87.7561 8.28725C86.0178 10.8619 85.3619 17.4706 86.4606 21.2259C87.0674 23.2593 87.7069 24.44 88.9368 25.7355C90.7243 27.6378 92.6922 28.4577 95.4963 28.4577C96.7918 28.4741 97.3986 28.3922 98.3497 28.0642C100.842 27.2606 102.859 25.4568 104.155 22.8986C104.958 21.2915 105.401 19.6188 105.614 17.2246C105.778 15.4699 105.762 14.8631 105.549 13.2889C105.106 10.2059 104.27 8.22166 102.728 6.61458C101.236 5.04029 99.2025 4.35154 96.9722 4.63032Z" fill="black"/>
<path d="M189.248 4.69599C185.559 5.36834 181.935 7.3034 182.23 8.43492C182.394 9.10727 182.771 9.09087 183.689 8.40212C184.542 7.76257 185.838 7.05742 186.559 6.82783C186.903 6.72944 186.92 6.74584 186.789 7.02462C186.083 8.33652 185.001 12.2231 184.312 15.8472C183.542 19.9633 183.41 21.3408 183.394 25.1945C183.394 28.7858 183.394 28.8022 183.837 29.7534C184.23 30.5733 184.394 30.7537 185.05 31.0489C185.69 31.3277 186.018 31.3605 186.903 31.2785C187.477 31.2293 188.019 31.1309 188.084 31.0653C188.15 30.9833 188.068 30.4913 187.887 29.9666C187.707 29.4254 187.395 27.9823 187.215 26.7688C186.936 24.8501 186.903 24.0138 186.969 20.8488C187.1 15.716 187.691 12.0919 189.002 8.54971C189.56 7.05742 189.576 6.97542 189.33 6.53266C189.084 6.10629 189.084 6.07349 189.347 5.9587C189.494 5.8931 190.659 5.84391 191.921 5.84391C194.086 5.84391 194.266 5.8767 195.201 6.30307C197.038 7.15581 197.809 8.25453 197.792 10.0256C197.792 11.5015 197.317 12.4363 195.792 13.9777C194.053 15.6996 193.299 16.126 191.79 16.1588C190.314 16.1916 189.658 16.5359 189.74 17.2083C189.822 17.9462 190.446 18.1594 191.807 17.897C192.446 17.7823 193.479 17.7167 194.152 17.7659C196.661 17.9298 197.923 19.209 197.891 21.5376C197.874 23.3906 197.054 24.7845 195.546 25.5225C193.971 26.2932 192.577 26.2604 189.724 25.3421C189.347 25.2273 189.33 25.2437 189.429 25.8669C189.576 26.736 190.528 27.6215 191.692 27.9823C192.709 28.2775 194.857 28.3267 196.005 28.0643C197.645 27.7035 199.235 26.6212 199.957 25.3749C201.105 23.3742 200.777 20.6684 199.121 18.7498C198.465 17.9626 196.612 16.9787 195.513 16.8147L194.758 16.6999L196.218 16.0112C199.694 14.3549 201.564 12.1739 201.58 9.77962C201.58 7.2542 199.301 5.36834 195.464 4.69599C193.791 4.40081 190.872 4.40081 189.248 4.69599Z" fill="black"/>
<path d="M12.1576 4.79441C11.3541 5.02399 9.73062 6.63108 8.6483 8.28735C5.54893 12.961 1.8756 22.5871 1.10485 28.0479C0.744082 30.5733 1.20325 31.2621 3.53187 31.754C4.13863 31.8852 4.69619 32 4.74539 32C4.79458 32 4.81098 31.3113 4.76178 30.4749C4.5978 27.1296 6.13928 20.5372 8.5991 14.1581C9.46824 11.9115 10.9277 9.0089 11.6329 8.17256C12.4856 7.13944 13.3875 6.86066 13.6663 7.53301C13.8631 8.02497 13.7483 12.4362 13.4039 16.9131C13.076 21.3244 13.0924 22.4559 13.5351 24.2106C14.2895 27.2935 16.4705 28.1955 18.012 26.08C18.5532 25.3257 19.4715 23.0299 21.0458 18.471C22.3577 14.6993 22.6857 13.8301 23.276 12.6166C23.8336 11.5179 24.0468 11.3375 24.3583 11.7475C24.6863 12.2067 24.6207 14.1745 24.1452 19.0778C23.5384 25.3421 23.6696 27.6707 24.7519 28.835C24.9487 29.0318 25.2767 29.2286 25.4899 29.2778C26.031 29.4254 27.3101 29.0974 27.8841 28.7038C28.3268 28.3759 28.3432 28.3431 28.1137 27.9987C27.6545 27.3591 27.2117 26.2604 27.0313 25.3093C26.851 24.3418 26.5066 18.0938 26.6214 17.897C26.7526 17.6839 26.7362 10.5996 26.6214 10.1076C26.3918 9.22208 25.7522 8.13976 25.3423 7.91018C24.7847 7.615 24.1452 7.79539 23.5876 8.38575C22.6365 9.40247 21.8165 11.2719 18.668 19.6189C17.7496 22.0459 16.9625 24.0794 16.9297 24.1122C16.7985 24.2598 16.6837 23.981 16.4541 22.8331C16.2737 21.9967 16.1589 19.7829 16.0442 15.388C15.8802 8.76292 15.7326 7.50021 15.011 6.10631C14.4043 4.9092 13.3547 4.43364 12.1576 4.79441Z" fill="black"/>
<path d="M162.895 4.84367C162.026 5.22084 161.961 5.41763 162.256 6.58194C162.551 7.72986 162.535 8.07423 161.977 14.1254C161.321 21.1113 161.616 24.5387 163.059 27.0149C163.617 27.9824 164.798 28.9663 165.683 29.2123C166.7 29.4911 168.143 29.3599 169.111 28.8843C170.931 27.9824 173.128 25.3914 174.67 22.374C175.145 21.4393 175.555 20.6849 175.605 20.6849C175.654 20.6849 175.719 21.2589 175.752 21.9476C175.801 23.4399 176.129 25.293 176.49 26.1457C177.048 27.4904 178.655 27.7692 180.278 26.8017C180.59 26.6213 180.59 26.6049 180.245 25.9817C179.294 24.2763 178.72 21.3409 178.605 17.4052C178.474 13.4531 178.819 10.6324 179.803 7.1887C180.114 6.13918 180.18 5.68001 180.049 5.54882C179.95 5.45043 179.442 5.33564 178.917 5.30284C178.032 5.23724 177.9 5.27004 177.425 5.69641C176.834 6.25397 176.605 7.1395 176.178 10.5996C175.637 15.0274 175.08 17.0772 173.62 20.1766C170.242 27.2937 165.814 29.1303 164.781 23.8335C164.404 21.9804 164.65 16.946 165.339 12.4036C166.175 6.84432 166.11 5.30284 165.011 4.79448C164.47 4.54849 163.502 4.58129 162.895 4.84367Z" fill="black"/>
<path d="M127.884 5.13871C123.768 5.71266 120.144 8.33647 118.291 12.0754C116.471 15.6995 116.34 19.5533 117.897 22.751C120.062 27.1459 125.638 29.5237 130.771 28.2282C133.296 27.5887 136.313 25.7684 136.986 24.4401C137.33 23.8005 137.297 23.0462 136.904 22.6526C136.461 22.2099 136.395 22.2263 135.936 22.8986C135.28 23.8661 133.591 25.3256 132.46 25.8996C130.869 26.7031 128.999 27.0311 127.327 26.7851C125.72 26.5555 124.572 26.0144 123.391 24.9321C120.587 22.3739 119.816 18.2086 121.308 13.8301C121.948 12.0098 122.653 10.8455 124.031 9.46799C125.949 7.51653 128.163 6.5818 130.803 6.5818C132.542 6.5818 133.296 6.81138 134.149 7.56573C134.772 8.12329 134.837 8.23808 134.903 9.15641C134.969 9.99275 134.903 10.3207 134.509 11.1735C134.165 11.9278 134.099 12.2558 134.231 12.469C134.493 12.8954 135.116 13.1413 135.936 13.1413C136.904 13.1413 137.363 12.6822 137.543 11.5178C138.232 7.20495 133.837 4.28597 127.884 5.13871Z" fill="black"/>
<path d="M110.403 20.9312C110.124 21.0788 109.796 21.374 109.681 21.5872C109.189 22.5055 110.124 24.129 111.157 24.129C112.732 24.129 114.027 21.8332 112.863 21.0788C112.272 20.6853 111.026 20.6197 110.403 20.9312Z" fill="black"/>
</g>
<path d="M217.602 6.61328L215.961 11.2305H215.352L213.711 6.625V11.2305H212.656V4.9375H213.969L215.656 9.61328L217.344 4.9375H218.656V11.2305H217.602V6.61328ZM211.73 5.88672H210.008V11.2305H208.941V5.88672H207.207V4.9375H211.73V5.88672Z" fill="black"/>
<defs>
<clipPath id="clip0">
<rect width="202" height="30" fill="white" transform="translate(0 2)"/>
</clipPath>
</defs>
</svg>
