<svg width="201" height="95" viewBox="0 0 201 95" fill="none" xmlns="http://www.w3.org/2000/svg">
<path d="M99.0867 0.277324L98.7294 0.560144L98.6848 19.8216C98.6699 30.4051 98.6848 39.2171 98.7294 39.4106C98.9527 40.3335 100.069 40.6312 100.843 39.9763L101.26 39.619L101.305 20.7296C101.334 10.3546 101.305 1.57234 101.26 1.21509C101.2 0.857849 101.037 0.455947 100.843 0.29221C100.441 -0.0948066 99.5481 -0.0948066 99.0867 0.277324Z" fill="black"/>
<path d="M94.457 6.02295C86.8507 7.06492 79.929 10.0271 73.7963 14.8499C72.0845 16.2045 68.7204 19.5536 67.351 21.2803C62.2751 27.6661 59.0153 35.6892 58.3752 43.4593L58.271 44.6501H59.5511H60.8313L60.9057 44.0101C60.9503 43.6677 61.0248 42.983 61.0694 42.4918C61.3522 39.6785 62.5728 35.1236 63.8232 32.2061C69.4945 18.9731 81.3878 10.1164 95.7223 8.46413L97.315 8.28551V7.05003V5.79967L96.6154 5.81456C96.2135 5.82944 95.2459 5.91875 94.457 6.02295Z" fill="black"/>
<path d="M102.674 7.03515V8.27062L104.728 8.53856C112.483 9.52098 119.39 12.5278 125.299 17.4995C127.979 19.7471 131.253 23.4833 133.069 26.3413C136.106 31.1046 138.16 36.8205 138.845 42.3429C138.934 43.0723 139.038 43.9059 139.083 44.1738L139.158 44.665L140.378 44.6204L141.599 44.5757L141.554 43.6826C141.346 38.9789 139.589 33.0099 136.969 27.9936C131.983 18.4372 123.007 10.8904 112.826 7.67521C109.863 6.73744 105.026 5.79967 103.195 5.79967H102.674V7.03515Z" fill="black"/>
<path d="M95.4244 27.0261C93.1321 27.5173 90.5123 28.6486 88.4581 29.9882C86.8654 31.0451 84.3498 33.4267 83.159 35.0194C82.1319 36.4187 80.822 38.9194 80.2713 40.5568C79.7949 41.9857 79.2591 44.3227 79.3781 44.5162C79.4377 44.5907 80.0033 44.6502 80.6434 44.6502C81.9533 44.6502 81.8342 44.7693 82.1319 43.2361C82.385 41.9857 82.9506 40.4823 83.7395 38.9343C86.0914 34.3347 90.4528 30.9111 95.5733 29.6161L97.2404 29.1993L97.2851 27.9936L97.3297 26.7879L96.8385 26.8028C96.5706 26.8177 95.9305 26.907 95.4244 27.0261Z" fill="black"/>
<path d="M102.674 28.0381V29.2736L103.359 29.3778C104.534 29.5266 106.857 30.3155 108.241 31.03C113.138 33.5308 116.711 38.1154 117.842 43.3848L118.095 44.5756L119.196 44.6203C119.792 44.65 120.372 44.6351 120.462 44.5905C120.878 44.4416 119.881 40.7352 118.824 38.4429C116.904 34.3048 112.811 30.256 108.687 28.4549C106.648 27.5618 104.028 26.7877 103.031 26.7877C102.674 26.7877 102.674 26.8175 102.674 28.0381Z" fill="black"/>
<path d="M52.8977 46.3024C52.3768 46.7191 52.347 47.7165 52.8531 48.1928L53.1954 48.5203H72.7398H92.2692L92.6264 48.1481C92.8795 47.91 92.9986 47.6271 92.9986 47.255C92.9986 46.8829 92.8795 46.6001 92.6264 46.3619L92.2692 45.9898H72.7844H53.2996L52.8977 46.3024Z" fill="black"/>
<path d="M107.378 46.3024C107.065 46.5554 106.991 46.734 106.991 47.2699C106.991 47.7313 107.08 48.0142 107.288 48.2226C107.586 48.5203 107.78 48.5203 127.16 48.5203H146.749L147.106 48.1481C147.568 47.7016 147.598 46.9127 147.196 46.4214L146.913 46.0642L127.339 46.0195L107.78 45.9898L107.378 46.3024Z" fill="black"/>
<path d="M58.3903 51.2294C58.4499 51.9141 58.6285 53.1942 58.7922 54.1022C58.9411 54.9953 59.1197 55.9926 59.1644 56.3201L59.2537 56.8857L60.4891 56.8262C61.1739 56.7964 61.7693 56.722 61.8139 56.6922C61.8437 56.6476 61.7246 55.814 61.5311 54.8316C61.3227 53.864 61.1292 52.6583 61.0697 52.1671C61.025 51.6759 60.9506 50.9912 60.9059 50.6339L60.8315 50.0088H59.5514H58.2861L58.3903 51.2294Z" fill="black"/>
<path d="M79.3933 50.5595C79.944 53.6258 81.2539 56.8411 82.9211 59.1929L83.3527 59.8032L84.0523 59.312C84.4394 59.0292 84.9306 58.7315 85.1687 58.6422L85.5855 58.4933L85.139 57.9277C83.8291 56.2457 82.5489 53.3877 82.0726 51.0358L81.8791 50.0832L80.5841 50.0385L79.2891 49.9938L79.3933 50.5595Z" fill="black"/>
<path d="M118.006 50.2915C118.006 50.4403 117.842 51.2292 117.634 52.033C117.187 53.7448 115.966 56.3646 114.969 57.7043L114.299 58.6272L115.818 58.5528C116.651 58.5081 117.41 58.4486 117.485 58.4188C117.768 58.3444 119.182 55.4418 119.703 53.8788C119.985 53.0155 120.313 51.7949 120.432 51.1548L120.655 50.0086H119.331C118.125 50.0086 118.006 50.0384 118.006 50.2915Z" fill="black"/>
<path d="M139.084 50.1874C139.039 50.2916 138.979 50.8572 138.935 51.4377C138.816 52.8072 138.324 55.6205 137.982 56.8857L137.699 57.8682L138.339 58.3296C138.697 58.5678 139.128 59.0143 139.322 59.2971C139.515 59.5948 139.709 59.833 139.753 59.833C139.858 59.833 140.304 58.2701 140.766 56.2605C141.034 55.0697 141.391 52.8221 141.599 50.8572L141.688 50.0087H140.408C139.515 50.0087 139.113 50.0683 139.084 50.1874Z" fill="black"/>
<path d="M99.1013 54.5934L98.6548 55.04V63.7776C98.6548 72.0538 98.6697 72.5152 98.9227 72.3962C99.0567 72.3366 99.6521 72.2473 100.218 72.2027L101.26 72.1133V63.5246C101.26 55.04 101.26 54.9209 100.947 54.6232C100.783 54.4594 100.396 54.2808 100.099 54.2213C99.6372 54.1469 99.5032 54.2064 99.1013 54.5934Z" fill="black"/>
<path d="M64.2697 56.9304C63.8232 57.4662 62.6621 57.6151 58.1668 57.749C53.3291 57.883 51.6321 58.0467 49.5631 58.5826C46.9284 59.2376 45.3357 60.2051 44.6807 61.5597C44.2193 62.4974 44.2342 63.5394 44.7105 64.1944C45.038 64.6558 45.9162 65.0428 46.6009 65.0428C47.1219 65.0428 48.3425 64.5367 48.3425 64.3283C48.3425 64.2539 48.1788 64.0455 47.9704 63.852C47.762 63.6585 47.5536 63.2864 47.5089 63.0035C47.2261 61.4704 48.923 60.3986 52.3913 59.9223C53.1951 59.8181 53.8798 59.7586 53.9096 59.7883C53.9542 59.833 53.8798 60.1456 53.7607 60.473C52.4955 64.0157 51.3791 73.5869 51.7661 77.6208C51.9298 79.4071 52.1531 79.9429 52.9718 80.4937C53.4184 80.8063 53.6119 80.836 54.639 80.7914C55.2641 80.7467 55.8149 80.6872 55.8595 80.6574C55.8893 80.6128 55.7851 80.1513 55.6214 79.6303C54.4901 75.9835 54.6241 68.3622 55.9489 61.2024L56.2614 59.5353H58.7622C60.1465 59.5353 61.382 59.4906 61.5308 59.4311C61.769 59.3418 61.7839 59.4906 61.6946 61.6341C61.6499 62.8993 61.4564 65.1321 61.2778 66.6058C60.8461 70.208 60.7717 77.5911 61.1736 78.4693C61.5159 79.2433 62.0518 79.541 63.0938 79.5559C63.5552 79.5559 63.9869 79.5113 64.0315 79.4666C64.0911 79.422 64.0167 78.7521 63.8827 77.9781C63.719 77.1296 63.6148 75.7453 63.6148 74.4949C63.5999 72.5003 63.6148 72.3812 64.0018 71.637C64.4483 70.8183 66.0411 69.1363 66.2197 69.3149C66.2643 69.3893 66.3983 69.7614 66.4876 70.1782C66.7555 71.2648 67.7231 73.2297 68.6906 74.6884C69.8517 76.4151 71.9654 78.5288 73.1711 79.1689C74.4066 79.809 74.9424 79.7345 75.8504 78.7968C76.684 77.9185 76.6542 77.6804 75.7165 77.2487C73.0371 76.043 70.328 73.319 68.8246 70.2973C68.3185 69.2851 67.8868 68.0645 68.0059 67.9752C68.0357 67.9454 69.2414 67.097 70.6704 66.0848C73.5134 64.105 74.3172 63.465 75.002 62.7505C75.5974 62.1104 76.0737 61.0982 75.9695 60.6665C75.8355 60.1456 75.3146 59.5502 74.6745 59.2376L74.1089 58.9399L73.5879 59.699C72.2184 61.7234 70.194 63.7627 67.47 65.8168C66.6513 66.4271 65.4754 67.4096 64.8651 67.9901C64.2548 68.5706 63.7338 69.0172 63.7041 69.0023C63.6743 68.9725 63.7636 67.5435 63.9125 65.8317C64.0464 64.1348 64.1655 61.9169 64.1804 60.9196L64.1953 59.1036L64.6865 59.0143C65.788 58.8059 66.0857 57.883 65.2968 57.1387C64.7758 56.6475 64.5376 56.6029 64.2697 56.9304Z" fill="black"/>
<path d="M34.5739 58.6423C33.1003 58.7614 32.8026 58.821 31.3736 59.2675C29.2153 59.9522 27.2057 61.4854 26.4466 63.0335C26.1489 63.6587 26.0894 64.001 26.0894 65.1174C26.0894 66.2338 26.1489 66.5613 26.4466 67.112C27.1164 68.3773 28.4412 69.583 30.153 70.4761L30.9568 70.8929L29.9744 71.4139C28.5901 72.1432 27.7565 72.9322 27.2206 74.0039C25.9405 76.5344 27.2951 79.0053 30.5698 80.1366C34.2167 81.4167 38.6078 80.6129 41.1383 78.2164C41.7784 77.621 41.9421 77.368 41.9421 76.9958C41.9421 76.3558 41.5998 76.1027 41.1681 76.4153C39.9922 77.2786 38.7567 78.008 37.8934 78.3504C34.7079 79.6156 30.674 78.7821 29.5874 76.6386C29.2153 75.9092 29.2004 74.7035 29.5725 73.8848C29.9 73.1554 30.8973 72.2772 31.7755 71.9497C32.4007 71.7116 32.5049 71.7116 33.5766 71.9646C34.2614 72.1284 35.3033 72.2474 36.1667 72.2474C37.4914 72.2623 37.6254 72.2326 37.9975 71.8902C38.5483 71.3692 38.459 70.744 37.7743 70.3272C37.3277 70.0742 37.0002 70.0295 35.6159 70.0295C34.7228 70.0295 33.6957 70.0891 33.3534 70.1486L32.7282 70.2826L31.5522 69.1067C30.1977 67.7521 29.6023 66.6952 29.4832 65.3705C29.2748 63.0186 30.7633 61.1579 33.532 60.3392C34.172 60.1457 34.9312 60.0713 36.2113 60.0713C39.0842 60.0713 40.7364 60.6667 42.2845 62.2446C43.2074 63.1972 43.6391 63.2865 43.8177 62.572C44.3684 60.3839 39.4265 58.2851 34.5739 58.6423Z" fill="black"/>
<path d="M134.126 58.7761C132.757 59.4013 131.67 61.0535 130.941 63.5989C130.539 64.9535 129.765 69.5976 129.765 70.5801C129.765 70.8182 129.661 71.0415 129.497 71.1308C129.08 71.3541 126.967 71.7114 125.463 71.8304L124.094 71.9346L124.183 72.3216C124.481 73.4827 125.657 73.9144 127.875 73.6762C128.604 73.5869 129.244 73.5571 129.289 73.5869C129.423 73.7357 128.604 77.0254 128.143 78.246L127.666 79.4666L126.818 79.5559C126.356 79.6154 125.716 79.7196 125.419 79.794C124.927 79.9131 124.853 80.0024 124.853 80.3597C124.853 81.1784 125.88 82.0119 126.907 82.0119C127.607 82.0119 128.649 81.5803 129.14 81.1039L129.616 80.6425L132.474 81.6398C137.773 83.4707 138.086 83.5451 140.185 83.56C141.837 83.5749 142.12 83.5302 142.745 83.2325C143.98 82.6222 144.189 81.3868 143.236 80.2555L142.864 79.8089L142.001 80.0769C139.47 80.8658 136.448 80.8658 132.549 80.0769C130.48 79.6452 130.078 79.5261 130.152 79.3326C130.792 77.859 131.254 76.0876 131.76 73.1999C131.849 72.7235 131.968 72.5896 132.697 72.1728C133.561 71.6816 134.945 70.6247 135.54 70.0144C136.21 69.3297 137.371 67.6775 137.788 66.8439C139.455 63.5096 139.247 60.0116 137.297 58.8654C136.493 58.3891 135.079 58.3593 134.126 58.7761ZM136.672 60.2795C137.148 60.86 137.267 61.515 137.133 62.8397C136.94 64.8641 136.225 66.5164 134.915 67.9752C134.29 68.6599 132.593 69.9549 132.296 69.9549C132.042 69.9549 133.025 64.1199 133.591 62.3188C134.052 60.8302 134.915 59.8329 135.749 59.8329C136.166 59.8329 136.374 59.9371 136.672 60.2795Z" fill="black"/>
<path d="M134.84 65.1322C134.423 65.9211 134.081 66.6505 134.081 66.7398C134.096 66.978 134.632 66.2635 135.034 65.4894C135.361 64.8643 135.763 63.7032 135.644 63.7032C135.614 63.7032 135.257 64.3433 134.84 65.1322Z" fill="black"/>
<path d="M87.1183 59.1038C84.1413 59.476 81.9532 62.9145 82.1616 66.9037C82.2955 69.4342 83.4119 71.012 85.0791 71.0269C85.7936 71.0269 86.3294 70.759 86.7016 70.2082C87.2523 69.4044 87.2077 69.077 86.5378 68.8388C85.7638 68.5709 84.9004 67.6926 84.5134 66.7846C84.1413 65.9213 84.0669 64.0904 84.3646 63.1675C85.2577 60.4584 88.1901 59.6397 90.1252 61.5599C91.3309 62.7805 92.0454 64.9686 92.2091 67.9606C92.4621 73.0811 90.9141 77.0703 88.071 78.5886C87.297 78.9905 86.9099 79.0947 85.9871 79.1543C84.3199 79.2436 83.4863 78.931 82.3551 77.7848C81.2982 76.728 80.6879 75.5371 80.1818 73.6021C79.8692 72.4112 79.8246 71.9498 79.8395 69.3598C79.8543 66.8591 79.899 66.2934 80.1818 65.2663C80.5242 63.9713 81.2536 62.3191 81.6555 61.8725C81.8936 61.6046 81.8936 61.5748 81.5513 61.3069C80.7772 60.6668 79.6162 61.1282 78.7528 62.4233C77.175 64.7602 76.5796 70.759 77.5769 74.1677C78.1277 76.0135 78.7082 77.0852 79.8246 78.2611C81.4471 79.9878 83.2333 80.7321 85.7787 80.7321C86.9546 80.747 87.5054 80.6726 88.3687 80.3749C90.6313 79.6455 92.4621 78.0081 93.6381 75.686C94.3675 74.2272 94.7694 72.709 94.9629 70.5357C95.1117 68.943 95.0968 68.3922 94.9033 66.9633C94.5014 64.1648 93.7423 62.3637 92.3431 60.905C90.9885 59.476 89.1427 58.8508 87.1183 59.1038Z" fill="black"/>
<path d="M170.878 59.1633C167.529 59.7736 164.24 61.53 164.508 62.5571C164.656 63.1674 164.999 63.1525 165.832 62.5273C166.606 61.9468 167.782 61.3067 168.437 61.0983C168.75 61.009 168.765 61.0239 168.646 61.277C168.006 62.4678 167.023 65.9956 166.398 69.2852C165.698 73.0214 165.579 74.2718 165.564 77.7698C165.564 81.0297 165.564 81.0446 165.966 81.9079C166.324 82.6522 166.472 82.8159 167.068 83.0838C167.648 83.3369 167.946 83.3667 168.75 83.2922C169.271 83.2476 169.762 83.1583 169.822 83.0987C169.881 83.0243 169.807 82.5777 169.643 82.1014C169.479 81.6102 169.196 80.3003 169.033 79.1988C168.78 77.4572 168.75 76.6981 168.809 73.8252C168.928 69.1661 169.464 65.8765 170.655 62.6613C171.161 61.3067 171.176 61.2323 170.953 60.8304C170.73 60.4434 170.73 60.4136 170.968 60.3094C171.102 60.2499 172.159 60.2052 173.305 60.2052C175.27 60.2052 175.433 60.235 176.282 60.622C177.949 61.3961 178.648 62.3934 178.634 64.001C178.634 65.3406 178.202 66.1891 176.818 67.5883C175.24 69.1513 174.555 69.5383 173.186 69.568C171.846 69.5978 171.251 69.9104 171.325 70.5207C171.399 71.1905 171.965 71.384 173.2 71.1459C173.781 71.0417 174.719 70.9821 175.329 71.0268C177.607 71.1757 178.753 72.3367 178.723 74.4504C178.708 76.1324 177.964 77.3977 176.594 78.0675C175.165 78.7671 173.9 78.7374 171.31 77.9038C170.968 77.7996 170.953 77.8145 171.042 78.3801C171.176 79.169 172.039 79.9728 173.096 80.3003C174.019 80.5682 175.969 80.6129 177.011 80.3747C178.5 80.0473 179.944 79.0648 180.598 77.9336C181.64 76.1176 181.343 73.6615 179.839 71.9199C179.244 71.2054 177.562 70.3123 176.565 70.1635L175.88 70.0593L177.205 69.4341C180.36 67.9307 182.057 65.9509 182.072 63.7777C182.072 61.4854 180.003 59.7736 176.52 59.1633C175.002 58.8953 172.352 58.8953 170.878 59.1633Z" fill="black"/>
<path d="M10.1323 59.2527C9.40288 59.461 7.92925 60.9198 6.94682 62.4232C4.13351 66.6655 0.799215 75.4031 0.0996083 80.3599C-0.227867 82.6522 0.18892 83.2774 2.30262 83.724C2.85338 83.8431 3.35948 83.9473 3.40413 83.9473C3.44879 83.9473 3.46367 83.3221 3.41902 82.5629C3.27016 79.5263 4.66938 73.5425 6.90216 67.7521C7.69108 65.7128 9.01587 63.0782 9.65593 62.319C10.43 61.3812 11.2487 61.1282 11.5017 61.7385C11.6803 62.185 11.5761 66.1892 11.2635 70.2528C10.9658 74.257 10.9807 75.2841 11.3826 76.8768C12.0673 79.6752 14.0471 80.4939 15.4463 78.5737C15.9375 77.889 16.7711 75.805 18.2001 71.6669C19.3909 68.2433 19.6886 67.4544 20.2245 66.3529C20.7306 65.3556 20.9241 65.1919 21.2069 65.564C21.5046 65.9808 21.445 67.767 21.0134 72.2177C20.4626 77.9039 20.5817 80.0176 21.5641 81.0744C21.7427 81.253 22.0405 81.4317 22.234 81.4763C22.7252 81.6103 23.8862 81.3126 24.4072 80.9553C24.8091 80.6576 24.824 80.6279 24.6156 80.3153C24.1988 79.7347 23.7969 78.7374 23.6332 77.8741C23.4694 76.9959 23.1568 71.3246 23.261 71.146C23.3801 70.9525 23.3652 64.522 23.261 64.0755C23.0527 63.2717 22.4721 62.2892 22.1 62.0808C21.5939 61.8129 21.0134 61.9767 20.5073 62.5125C19.6439 63.4354 18.8997 65.1323 16.0417 72.7089C15.2081 74.9119 14.4936 76.7577 14.4639 76.7875C14.3448 76.9214 14.2406 76.6684 14.0322 75.6264C13.8685 74.8673 13.7643 72.8578 13.6601 68.8685C13.5112 62.8549 13.3772 61.7087 12.7223 60.4435C12.1715 59.3568 11.2189 58.9252 10.1323 59.2527Z" fill="black"/>
<path d="M146.957 59.2971C146.168 59.6395 146.109 59.8181 146.377 60.875C146.645 61.9169 146.63 62.2295 146.124 67.7222C145.528 74.0633 145.796 77.1743 147.106 79.422C147.612 80.3002 148.684 81.1933 149.488 81.4166C150.411 81.6696 151.721 81.5506 152.599 81.1189C154.251 80.3002 156.246 77.9483 157.645 75.2095C158.077 74.361 158.449 73.6763 158.493 73.6763C158.538 73.6763 158.598 74.1973 158.627 74.8224C158.672 76.177 158.97 77.859 159.297 78.6331C159.803 79.8536 161.262 80.1067 162.736 79.2285C163.019 79.0647 163.019 79.0498 162.706 78.4842C161.843 76.9361 161.322 74.2717 161.217 70.6992C161.098 67.1119 161.411 64.5516 162.304 61.4257C162.587 60.4731 162.646 60.0563 162.527 59.9372C162.438 59.8479 161.977 59.7437 161.5 59.7139C160.696 59.6544 160.577 59.6841 160.146 60.0712C159.61 60.5773 159.401 61.3811 159.014 64.5219C158.523 68.5409 158.017 70.4015 156.692 73.2148C153.626 79.675 149.607 81.3422 148.669 76.5342C148.327 74.8522 148.55 70.2824 149.175 66.1592C149.934 61.1131 149.875 59.7139 148.878 59.2525C148.386 59.0292 147.508 59.059 146.957 59.2971Z" fill="black"/>
<path d="M115.177 59.565C111.441 60.086 108.151 62.4676 106.469 65.8615C104.817 69.1511 104.698 72.6491 106.112 75.5518C108.077 79.541 113.138 81.6994 117.797 80.5234C120.089 79.9429 122.828 78.2907 123.438 77.0849C123.751 76.5044 123.721 75.8197 123.364 75.4625C122.962 75.0606 122.903 75.0754 122.486 75.6857C121.89 76.564 120.357 77.8888 119.33 78.4097C117.886 79.1391 116.189 79.4368 114.671 79.2135C113.212 79.0051 112.17 78.5139 111.099 77.5315C108.553 75.2094 107.854 71.4286 109.208 67.4542C109.789 65.8019 110.429 64.7451 111.679 63.4947C113.421 61.7234 115.43 60.8749 117.827 60.8749C119.405 60.8749 120.089 61.0833 120.863 61.768C121.429 62.2741 121.488 62.3783 121.548 63.2119C121.608 63.9711 121.548 64.2688 121.191 65.0428C120.878 65.7275 120.819 66.0252 120.938 66.2187C121.176 66.6057 121.741 66.829 122.486 66.829C123.364 66.829 123.781 66.4122 123.945 65.3554C124.57 61.4406 120.58 58.791 115.177 59.565Z" fill="black"/>
<path d="M86.6275 62.6315L86.2852 62.8994L86.6275 63.1971C87.6397 64.1051 90.2446 65.7574 90.4084 65.5937C90.6763 65.3257 89.6641 63.346 88.9645 62.7506C88.3989 62.2743 87.1783 62.2147 86.6275 62.6315Z" fill="black"/>
<path d="M104.162 64.9982C103.716 65.1024 103.195 65.2364 103.016 65.2662C102.689 65.3406 102.674 65.415 102.674 66.6207V67.886L103.239 67.7967C104.207 67.6329 104.281 67.5734 104.475 67.0078C104.564 66.7101 104.847 66.07 105.085 65.5937C105.562 64.6261 105.576 64.6261 104.162 64.9982Z" fill="black"/>
<path d="M96.02 65.2513C96.0646 65.3555 96.1688 65.936 96.273 66.5612C96.4517 67.6925 96.5856 67.8562 97.2108 67.8711C97.2703 67.8711 97.315 67.3055 97.315 66.6058C97.315 65.2066 97.4192 65.3555 96.2284 65.1173C96.0498 65.0876 95.9753 65.1322 96.02 65.2513Z" fill="black"/>
<path d="M99.3097 73.8996C99.0567 74.0336 98.759 74.3015 98.6548 74.495C98.2082 75.3286 99.0567 76.8022 99.9945 76.8022C101.423 76.8022 102.599 74.7183 101.543 74.0336C101.007 73.6763 99.8754 73.6168 99.3097 73.8996Z" fill="black"/>
<path d="M127.205 75.2988C127.19 75.3733 126.505 76.0133 125.717 76.7278C124.913 77.4274 124.258 78.0824 124.258 78.1568C124.258 78.2461 124.332 78.261 124.422 78.2163C124.511 78.1568 125.062 78.0228 125.642 77.9335L126.714 77.7549L127.026 76.8618C127.458 75.6561 127.562 75.1649 127.399 75.1649C127.324 75.1649 127.235 75.2244 127.205 75.2988Z" fill="black"/>
<path d="M98.6548 85.7036C98.6548 93.5183 98.6697 93.7416 98.9525 94.1137C99.5777 94.9027 100.843 94.6943 101.17 93.7565C101.275 93.4439 101.334 90.7646 101.334 85.5994V77.8888L100.322 77.9037C99.7712 77.9186 99.1758 77.8591 98.9971 77.7995L98.6548 77.6804V85.7036Z" fill="black"/>
<path d="M122.769 79.4072C121.906 80.0622 114.925 83.4411 113.243 84.0216C110.146 85.0934 107.214 85.7632 104.341 86.0609L102.659 86.2395L102.704 87.5048L102.748 88.77L103.493 88.7402C103.91 88.7105 104.937 88.5914 105.8 88.4723C111.501 87.6536 116.592 85.8674 121.415 82.9648C124.005 81.4167 123.886 81.5209 123.662 80.985C123.573 80.732 123.439 80.1961 123.379 79.7793L123.29 79.0202L122.769 79.4072Z" fill="black"/>
<path d="M76.7586 79.5709C76.5651 79.7942 76.0739 80.1217 75.6869 80.3003L74.9575 80.6427L76.9521 81.9675C80.3162 84.2003 84.0822 85.9716 87.9374 87.1327C90.4828 87.8918 94.2786 88.6063 96.5709 88.7403L97.2407 88.7849V87.5197V86.2693L95.1717 86.0163C91.9267 85.5995 89.5451 85.0338 86.4489 83.9174C84.3203 83.1434 80.5693 81.2828 78.7384 80.0919C77.9792 79.5858 77.2945 79.1839 77.235 79.1839C77.1754 79.1839 76.967 79.3626 76.7586 79.5709Z" fill="black"/>
<path d="M191.871 45.5684L190.23 50.1855H189.621L187.98 45.5801V50.1855H186.925V43.8926H188.238L189.925 48.5684L191.613 43.8926H192.925V50.1855H191.871V45.5684ZM186 44.8418H184.277V50.1855H183.21V44.8418H181.476V43.8926H186V44.8418Z" fill="black"/>
</svg>
