<svg width="157" height="27" viewBox="0 0 157 27" fill="none" xmlns="http://www.w3.org/2000/svg">
<g clip-path="url(#clip0)">
<path d="M51.1216 5.16393C50.7733 5.58187 49.8678 5.69797 46.3617 5.80245C42.5886 5.90694 41.2651 6.03464 39.6513 6.45259C37.5964 6.96341 36.3542 7.71803 35.8434 8.7745C35.4835 9.50591 35.4951 10.3186 35.8666 10.8294C36.122 11.1893 36.807 11.4911 37.341 11.4911C37.7474 11.4911 38.6993 11.0964 38.6993 10.9339C38.6993 10.8758 38.5716 10.7133 38.4091 10.5624C38.2466 10.4115 38.084 10.1212 38.0492 9.90063C37.8286 8.70484 39.1521 7.86895 41.8572 7.49745C42.4841 7.41618 43.0181 7.36974 43.0413 7.39296C43.0762 7.42779 43.0181 7.67159 42.9252 7.927C41.9384 10.6901 41.0677 18.1551 41.3695 21.3013C41.4973 22.6944 41.6714 23.1124 42.3099 23.5419C42.6582 23.7857 42.8091 23.809 43.6102 23.7741C44.0978 23.7393 44.5274 23.6929 44.5622 23.6696C44.5854 23.6348 44.5041 23.2749 44.3764 22.8686C43.4941 20.0242 43.5986 14.0801 44.6318 8.49587L44.8756 7.1956H46.8261C47.9057 7.1956 48.8693 7.16077 48.9854 7.11433C49.1712 7.04467 49.1828 7.16077 49.1131 8.83255C49.0783 9.81936 48.9274 11.5608 48.7881 12.7102C48.4514 15.5197 48.3933 21.2781 48.7068 21.963C48.9738 22.5667 49.3918 22.7989 50.2044 22.8105C50.5643 22.8105 50.901 22.7757 50.9358 22.7409C50.9823 22.706 50.9242 22.1836 50.8197 21.5799C50.692 20.9182 50.6108 19.8385 50.6108 18.8633C50.5992 17.3076 50.6108 17.2147 50.9126 16.6342C51.2609 15.9957 52.5031 14.6838 52.6425 14.8231C52.6773 14.8811 52.7818 15.1714 52.8514 15.4965C53.0604 16.344 53.815 17.8765 54.5696 19.0142C55.4752 20.3609 57.1238 22.0095 58.0641 22.5087C59.0277 23.0079 59.4457 22.9498 60.1539 22.2184C60.804 21.5335 60.7808 21.3477 60.0494 21.011C57.9596 20.0707 55.8467 17.9461 54.6741 15.5894C54.2794 14.7999 53.9427 13.8479 54.0356 13.7782C54.0588 13.755 54.9992 13.0933 56.1137 12.3038C58.3311 10.7597 58.9581 10.2605 59.4921 9.70327C59.9565 9.20406 60.328 8.41461 60.2467 8.07793C60.1422 7.67159 59.7359 7.20721 59.2367 6.96341L58.7955 6.73122L58.3892 7.3233C57.3211 8.90221 55.7422 10.4927 53.6177 12.0948C52.9791 12.5708 52.062 13.3371 51.586 13.7898C51.11 14.2426 50.7037 14.5909 50.6804 14.5793C50.6572 14.5561 50.7269 13.4416 50.843 12.1065C50.9475 10.783 51.0403 9.05313 51.0519 8.27529L51.0636 6.85892L51.4467 6.78926C52.3058 6.62673 52.538 5.90694 51.9227 5.32646C51.5163 4.94334 51.3306 4.90852 51.1216 5.16393Z" fill="black"/>
<path d="M27.9602 6.49941C26.8109 6.59229 26.5787 6.63873 25.4642 6.98702C23.7808 7.52106 22.2135 8.71685 21.6214 9.92424C21.3892 10.4118 21.3428 10.6789 21.3428 11.5496C21.3428 12.4203 21.3892 12.6757 21.6214 13.1053C22.1438 14.0921 23.1771 15.0324 24.5122 15.729L25.1391 16.0541L24.3729 16.4604C23.2932 17.0293 22.643 17.6446 22.2251 18.4805C21.2267 20.4541 22.2831 22.3813 24.8373 23.2636C27.6816 24.262 31.1064 23.6351 33.0801 21.766C33.5793 21.3016 33.707 21.1042 33.707 20.814C33.707 20.3148 33.44 20.1174 33.1033 20.3612C32.1861 21.0346 31.2225 21.6034 30.5492 21.8705C28.0647 22.8573 24.9185 22.2071 24.071 20.5354C23.7808 19.9665 23.7692 19.0261 24.0594 18.3876C24.3148 17.8187 25.0927 17.1338 25.7776 16.8783C26.2652 16.6926 26.3465 16.6926 27.1824 16.89C27.7164 17.0177 28.5291 17.1105 29.2025 17.1105C30.2357 17.1221 30.3402 17.0989 30.6304 16.8319C31.06 16.4256 30.9903 15.938 30.4563 15.6129C30.108 15.4155 29.8526 15.3807 28.7729 15.3807C28.0763 15.3807 27.2753 15.4271 27.0082 15.4736L26.5206 15.5781L25.6035 14.6609C24.547 13.6045 24.0826 12.7802 23.9898 11.7469C23.8272 9.91263 24.9882 8.46143 27.1476 7.82291C27.6468 7.67198 28.2389 7.61393 29.2373 7.61393C31.4779 7.61393 32.7666 8.07832 33.974 9.30893C34.6938 10.0519 35.0305 10.1216 35.1698 9.56434C35.5993 7.85774 31.745 6.22078 27.9602 6.49941Z" fill="black"/>
<path d="M105.605 6.60352C104.537 7.09113 103.69 8.37979 103.121 10.365C102.807 11.4215 102.204 15.0437 102.204 15.8099C102.204 15.9957 102.122 16.1698 101.995 16.2395C101.669 16.4136 100.021 16.6923 98.8484 16.7851L97.7803 16.8664L97.8499 17.1683C98.0821 18.0738 98.9993 18.4105 100.729 18.2247C101.298 18.1551 101.797 18.1319 101.832 18.1551C101.937 18.2712 101.298 20.8369 100.938 21.7889L100.567 22.7409L99.9048 22.8105C99.5449 22.857 99.0457 22.9382 98.8135 22.9963C98.4304 23.0892 98.3724 23.1588 98.3724 23.4374C98.3724 24.076 99.1734 24.7261 99.9745 24.7261C100.52 24.7261 101.333 24.3894 101.716 24.0179L102.087 23.658L104.316 24.4359C108.449 25.8638 108.693 25.9219 110.33 25.9335C111.619 25.9451 111.839 25.9103 112.327 25.6781C113.291 25.2021 113.453 24.2385 112.71 23.3562L112.42 23.0079L111.747 23.2169C109.773 23.8322 107.416 23.8322 104.375 23.2169C102.761 22.8802 102.447 22.7873 102.505 22.6364C103.005 21.487 103.364 20.1055 103.759 17.8532C103.829 17.4817 103.922 17.3772 104.491 17.0522C105.164 16.6691 106.244 15.8448 106.708 15.3688C107.23 14.8347 108.136 13.5461 108.461 12.8959C109.761 10.2954 109.599 7.56712 108.078 6.67318C107.451 6.30167 106.348 6.27846 105.605 6.60352ZM107.59 7.77609C107.962 8.22887 108.055 8.73969 107.95 9.77294C107.799 11.3518 107.242 12.6405 106.22 13.7783C105.733 14.3123 104.409 15.3223 104.177 15.3223C103.98 15.3223 104.746 10.7714 105.187 9.3666C105.547 8.20565 106.22 7.4278 106.871 7.4278C107.196 7.4278 107.358 7.50907 107.59 7.77609Z" fill="black"/>
<path d="M68.9423 6.85923C66.6204 7.14947 64.9138 9.83128 65.0763 12.9427C65.1808 14.9163 66.0515 16.1469 67.3518 16.1585C67.909 16.1585 68.327 15.9495 68.6172 15.52C69.0468 14.8931 69.0119 14.6377 68.4895 14.4519C67.8858 14.2429 67.2125 13.558 66.9106 12.8498C66.6204 12.1764 66.5623 10.7484 66.7945 10.0287C67.4911 7.9157 69.7782 7.27718 71.2874 8.77481C72.2278 9.7268 72.7851 11.4334 72.9128 13.7669C73.1101 17.7606 71.9027 20.872 69.6853 22.0562C69.0816 22.3696 68.7797 22.4509 68.06 22.4973C66.7597 22.567 66.1095 22.3232 65.2272 21.4293C64.4029 20.605 63.9269 19.6762 63.5322 18.167C63.2884 17.2382 63.2536 16.8783 63.2652 14.8582C63.2768 12.9078 63.3116 12.4667 63.5322 11.6656C63.7992 10.6556 64.3681 9.3669 64.6816 9.01861C64.8673 8.80964 64.8673 8.78642 64.6003 8.57745C63.9966 8.07824 63.0911 8.43813 62.4177 9.44817C61.1871 11.2709 60.7227 15.9495 61.5005 18.6081C61.9301 20.0477 62.3829 20.8836 63.2536 21.8008C64.519 23.1475 65.9122 23.728 67.8974 23.728C68.8146 23.7396 69.2441 23.6815 69.9175 23.4493C71.6821 22.8805 73.1101 21.6034 74.0273 19.7923C74.5961 18.6546 74.9096 17.4704 75.0605 15.7754C75.1766 14.5332 75.165 14.1036 75.0141 12.9891C74.7006 10.8065 74.1085 9.40173 73.0172 8.26399C71.9608 7.14947 70.5212 6.66187 68.9423 6.85923Z" fill="black"/>
<path d="M134.27 6.90551C131.658 7.3815 129.092 8.75143 129.301 9.55249C129.417 10.0285 129.684 10.0169 130.334 9.52927C130.938 9.0765 131.855 8.57729 132.366 8.41475C132.61 8.3451 132.621 8.35671 132.528 8.55407C132.029 9.48284 131.263 12.2343 130.775 14.8C130.23 17.714 130.137 18.6892 130.125 21.4175C130.125 23.96 130.125 23.9716 130.439 24.645C130.717 25.2254 130.833 25.3531 131.298 25.5621C131.751 25.7595 131.983 25.7827 132.61 25.7246C133.016 25.6898 133.399 25.6202 133.446 25.5737C133.492 25.5157 133.434 25.1674 133.306 24.7959C133.179 24.4128 132.958 23.3911 132.83 22.532C132.633 21.1737 132.61 20.5816 132.656 18.3409C132.749 14.7071 133.167 12.1414 134.096 9.63376C134.49 8.57729 134.502 8.51924 134.328 8.20578C134.154 7.90393 134.154 7.88071 134.34 7.79945C134.444 7.75301 135.268 7.71818 136.162 7.71818C137.695 7.71818 137.822 7.7414 138.484 8.04325C139.784 8.64695 140.33 9.42479 140.319 10.6786C140.319 11.7235 139.982 12.3852 138.902 13.4765C137.672 14.6955 137.137 14.9974 136.069 15.0206C135.025 15.0438 134.56 15.2876 134.618 15.7636C134.676 16.2861 135.117 16.437 136.081 16.2512C136.534 16.17 137.265 16.1235 137.741 16.1583C139.517 16.2744 140.411 17.18 140.388 18.8286C140.377 20.1404 139.796 21.1272 138.728 21.6497C137.613 22.1953 136.627 22.1721 134.607 21.522C134.34 21.4407 134.328 21.4523 134.398 21.8935C134.502 22.5088 135.175 23.1357 136 23.3911C136.72 23.6001 138.24 23.6349 139.053 23.4492C140.214 23.1938 141.34 22.4275 141.851 21.5452C142.664 20.1288 142.431 18.2132 141.259 16.8549C140.795 16.2977 139.483 15.6011 138.705 15.485L138.171 15.4037L139.204 14.9161C141.665 13.7435 142.989 12.1995 143 10.5045C143 8.7166 141.387 7.3815 138.67 6.90551C137.486 6.69654 135.419 6.69654 134.27 6.90551Z" fill="black"/>
<path d="M8.89766 6.97531C8.32879 7.13784 7.17945 8.27558 6.41321 9.44815C4.219 12.7569 1.61846 19.5717 1.07281 23.4377C0.817393 25.2256 1.14246 25.7132 2.79102 26.0615C3.22058 26.1543 3.6153 26.2356 3.65013 26.2356C3.68496 26.2356 3.69657 25.748 3.66174 25.1559C3.54565 22.7876 4.63695 18.1205 6.37838 13.6044C6.99369 12.0139 8.02695 9.95897 8.52616 9.36688C9.12986 8.63548 9.76838 8.43812 9.96575 8.91411C10.1051 9.2624 10.0238 12.3854 9.77999 15.5548C9.5478 18.6778 9.55941 19.4788 9.87287 20.721C10.4069 22.9036 11.951 23.5422 13.0423 22.0445C13.4254 21.5105 14.0755 19.8852 15.1901 16.6577C16.1188 13.9875 16.351 13.3722 16.769 12.5131C17.1637 11.7352 17.3146 11.6075 17.5352 11.8978C17.7674 12.2228 17.7209 13.616 17.3843 17.0872C16.9547 21.5221 17.0476 23.1707 17.8138 23.9949C17.9531 24.1343 18.1853 24.2736 18.3363 24.3084C18.7194 24.4129 19.6249 24.1807 20.0313 23.9021C20.3447 23.6699 20.3563 23.6467 20.1938 23.4029C19.8687 22.9501 19.5553 22.1722 19.4276 21.4989C19.2998 20.8139 19.056 16.3907 19.1373 16.2514C19.2302 16.1004 19.2186 11.0851 19.1373 10.7368C18.9748 10.1099 18.522 9.34366 18.2318 9.18113C17.837 8.97216 17.3843 9.09986 16.9895 9.51781C16.3162 10.2376 15.7357 11.5611 13.5067 17.4704C12.8565 19.1886 12.2993 20.6282 12.2761 20.6514C12.1832 20.7559 12.1019 20.5585 11.9394 19.7458C11.8117 19.1538 11.7304 17.5865 11.6491 14.4751C11.533 9.78483 11.4286 8.89089 10.9177 7.90408C10.4882 7.05658 9.74516 6.7199 8.89766 6.97531Z" fill="black"/>
<path d="M115.613 7.01018C114.998 7.2772 114.951 7.41651 115.16 8.24079C115.369 9.05347 115.358 9.29727 114.963 13.5812C114.498 18.5269 114.707 20.9533 115.729 22.7064C116.124 23.3913 116.96 24.0879 117.587 24.262C118.306 24.4594 119.328 24.3665 120.013 24.0299C121.302 23.3913 122.857 21.557 123.949 19.4208C124.285 18.7591 124.576 18.2251 124.61 18.2251C124.645 18.2251 124.692 18.6314 124.715 19.119C124.75 20.1755 124.982 21.4874 125.237 22.0911C125.632 23.043 126.77 23.2404 127.919 22.5554C128.14 22.4277 128.14 22.4161 127.896 21.975C127.223 20.7676 126.816 18.6894 126.735 15.9031C126.642 13.1052 126.886 11.1084 127.582 8.67035C127.803 7.92734 127.849 7.60227 127.757 7.50939C127.687 7.43973 127.327 7.35847 126.955 7.33525C126.329 7.28881 126.236 7.31203 125.899 7.61388C125.481 8.0086 125.319 8.63552 125.017 11.0851C124.634 14.2197 124.239 15.671 123.206 17.8652C120.814 22.9037 117.679 24.204 116.948 20.4541C116.681 19.1422 116.855 15.5781 117.343 12.3622C117.935 8.42655 117.888 7.33525 117.111 6.97535C116.727 6.80121 116.042 6.82443 115.613 7.01018Z" fill="black"/>
<path d="M90.8268 7.21895C87.9128 7.62529 85.3471 9.48282 84.0352 12.1298C82.7466 14.6955 82.6537 17.4238 83.7566 19.6877C85.2891 22.799 89.2363 24.4824 92.8701 23.5653C94.658 23.1125 96.7941 21.8238 97.2701 20.8834C97.5139 20.4307 97.4907 19.8966 97.2121 19.618C96.8986 19.3045 96.8522 19.3161 96.5271 19.7921C96.0627 20.4771 94.867 21.5104 94.0659 21.9167C92.9398 22.4856 91.6163 22.7178 90.4321 22.5436C89.2944 22.3811 88.4817 21.998 87.6458 21.2317C85.6606 19.4206 85.1149 16.4718 86.1714 13.372C86.6242 12.0834 87.1234 11.2591 88.0986 10.2839C89.4569 8.90234 91.0242 8.2406 92.8933 8.2406C94.1239 8.2406 94.658 8.40313 95.2617 8.93717C95.7028 9.3319 95.7493 9.41316 95.7957 10.0633C95.8422 10.6554 95.7957 10.8876 95.5171 11.4913C95.2733 12.0253 95.2269 12.2575 95.3197 12.4084C95.5055 12.7103 95.9466 12.8844 96.5271 12.8844C97.2121 12.8844 97.5372 12.5594 97.6649 11.7351C98.1525 8.68176 95.0411 6.61526 90.8268 7.21895Z" fill="black"/>
<path d="M78.4506 18.3995C78.2533 18.5039 78.0211 18.7129 77.9398 18.8638C77.5915 19.514 78.2533 20.6633 78.9847 20.6633C80.0992 20.6633 81.0164 19.038 80.1921 18.5039C79.7741 18.2253 78.8918 18.1789 78.4506 18.3995Z" fill="black"/>
</g>
<path d="M153.701 5.45996L152.471 8.92285H152.014L150.783 5.46875V8.92285H149.992V4.20312H150.977L152.242 7.70996L153.508 4.20312H154.492V8.92285H153.701V5.45996ZM149.298 4.91504H148.006V8.92285H147.206V4.91504H145.905V4.20312H149.298V4.91504Z" fill="black"/>
<defs>
<clipPath id="clip0">
<rect width="143" height="22" fill="white" transform="translate(0 5)"/>
</clipPath>
</defs>
</svg>
